%TF.GenerationSoftware,Altium Limited,Altium Designer,18.1.9 (240)*%
G04 Layer_Color=65535*
%FSLAX26Y26*%
%MOIN*%
%TF.FileFunction,Legend,Top*%
%TF.Part,Single*%
G01*
G75*
%TA.AperFunction,NonConductor*%
%ADD44C,0.009842*%
%ADD46C,0.010000*%
%ADD47C,0.007874*%
%ADD68R,0.059055X0.078740*%
%ADD69R,0.029528X0.027559*%
D44*
X976378Y344488D02*
G03*
X976378Y344488I-4921J0D01*
G01*
D46*
X1537402Y641732D02*
G03*
X1537402Y641732I-9842J0D01*
G01*
X1653543Y866142D02*
G03*
X1653543Y866142I-19685J0D01*
G01*
X437008Y370079D02*
G03*
X437008Y370079I-11811J0D01*
G01*
X338025Y596315D02*
X574245D01*
X338025Y462457D02*
Y596315D01*
Y462457D02*
X574245D01*
Y596315D01*
X917323Y531496D02*
X933071D01*
X917323Y570866D02*
X933071D01*
X40600Y625984D02*
Y704725D01*
Y1145669D01*
X265010Y677165D02*
Y1094488D01*
X969734Y625984D02*
X1005167D01*
X969734Y1145669D02*
X1005167D01*
X1056348Y677165D02*
Y700788D01*
Y1070866D02*
Y1094488D01*
X316191Y1145669D02*
X402805D01*
X40600D02*
X280758D01*
X316191Y625984D02*
X402805D01*
X40600D02*
X280758D01*
X1598425Y814961D02*
X1669291D01*
X1598425Y917323D02*
X1669291D01*
X1574803Y854331D02*
Y877953D01*
X1692913Y854331D02*
Y877953D01*
X1409449Y1039370D02*
X1425197D01*
X1409449Y1086614D02*
X1425197D01*
X1240158Y1090551D02*
X1259842D01*
X1240157Y1035433D02*
X1259842Y1035434D01*
X1240157Y1114173D02*
X1259842Y1114174D01*
X1240158Y1169291D02*
X1259842D01*
X1409449Y1118110D02*
X1425197D01*
X1409449Y1165354D02*
X1425197D01*
X106299Y188976D02*
Y362205D01*
X240157Y114173D02*
X409449D01*
Y157480D01*
X342520D02*
X409449D01*
X342520D02*
Y200787D01*
Y393701D02*
X409449D01*
X342520Y350394D02*
Y393701D01*
X240157Y437008D02*
X409449D01*
Y393701D02*
Y437008D01*
X1153543Y143701D02*
X1169291D01*
X1153543Y190945D02*
X1169291D01*
X1072834Y411417D02*
X1092519Y411418D01*
X1072834Y356300D02*
X1092519D01*
X1318898Y83858D02*
X1515748D01*
X1318898Y191732D02*
X1515748D01*
X1045275Y88583D02*
X1061023D01*
X1045275Y127953D02*
X1061023D01*
X1045275Y187008D02*
X1061023D01*
X1045275Y147638D02*
X1061023D01*
X996063Y403544D02*
X1011811D01*
X996063Y364174D02*
X1011811D01*
X730315Y147638D02*
X746063D01*
X730315Y187008D02*
X746063D01*
X838583Y295276D02*
Y314961D01*
X893700Y314961D02*
X893701Y295276D01*
X730315Y370079D02*
X746063D01*
X730315Y417323D02*
X746063D01*
X562992Y291339D02*
X578740D01*
X562992Y338583D02*
X578740D01*
X562992Y255905D02*
X578740D01*
X562992Y216536D02*
X578740D01*
X501969Y19685D02*
Y69669D01*
X518630Y53008D01*
X535291Y69669D01*
Y19685D01*
X585275D02*
X551952D01*
X585275Y53008D01*
Y61338D01*
X576944Y69669D01*
X560283D01*
X551952Y61338D01*
X601936D02*
X610267Y69669D01*
X626928D01*
X635259Y61338D01*
Y53008D01*
X626928Y44677D01*
X635259Y36346D01*
Y28016D01*
X626928Y19685D01*
X610267D01*
X601936Y28016D01*
Y36346D01*
X610267Y44677D01*
X601936Y53008D01*
Y61338D01*
X610267Y44677D02*
X626928D01*
X651920Y61338D02*
X660250Y69669D01*
X676912D01*
X685242Y61338D01*
Y53008D01*
X676912Y44677D01*
X685242Y36346D01*
Y28016D01*
X676912Y19685D01*
X660250D01*
X651920Y28016D01*
Y36346D01*
X660250Y44677D01*
X651920Y53008D01*
Y61338D01*
X660250Y44677D02*
X676912D01*
X701904Y61338D02*
X710234Y69669D01*
X726896D01*
X735226Y61338D01*
Y53008D01*
X726896Y44677D01*
X735226Y36346D01*
Y28016D01*
X726896Y19685D01*
X710234D01*
X701904Y28016D01*
Y36346D01*
X710234Y44677D01*
X701904Y53008D01*
Y61338D01*
X710234Y44677D02*
X726896D01*
X751888Y69669D02*
Y19685D01*
X776879D01*
X785210Y28016D01*
Y36346D01*
X776879Y44677D01*
X751888D01*
X776879D01*
X785210Y53008D01*
Y61338D01*
X776879Y69669D01*
X751888D01*
X835194Y19685D02*
X801871D01*
X835194Y53008D01*
Y61338D01*
X826863Y69669D01*
X810202D01*
X801871Y61338D01*
D47*
X1559055Y277559D02*
Y356299D01*
Y277559D02*
X1582677D01*
X1559055Y647638D02*
Y726378D01*
X1582677D01*
X1700787Y277559D02*
X1724409D01*
X1700787Y726378D02*
X1724409D01*
Y277559D02*
Y726378D01*
X1022638Y212599D02*
Y338583D01*
X1083661Y212599D02*
Y338583D01*
X1022638D02*
X1083661D01*
X1022638Y212599D02*
X1083661D01*
X679128Y215565D02*
X797238D01*
X797238Y290328D02*
X797238Y260329D01*
X679128Y335565D02*
X797238D01*
X608268Y493428D02*
X614827Y499987D01*
X627946D01*
X634506Y493428D01*
Y467190D01*
X627946Y460630D01*
X614827D01*
X608268Y467190D01*
Y493428D01*
X283465Y460630D02*
X296584D01*
X290024D01*
Y499987D01*
X283465Y493428D01*
X137795Y98412D02*
Y72174D01*
X150914Y59055D01*
X164034Y72174D01*
Y98412D01*
X177153D02*
Y59055D01*
X196831D01*
X203391Y65615D01*
Y72174D01*
X196831Y78734D01*
X177153D01*
X196831D01*
X203391Y85293D01*
Y91853D01*
X196831Y98412D01*
X177153D01*
X216510Y59055D02*
Y85293D01*
X229629Y98412D01*
X242748Y85293D01*
Y59055D01*
Y78734D01*
X216510D01*
X255867Y98412D02*
X282105D01*
X268986D01*
Y59055D01*
X453157Y440379D02*
X446598Y446938D01*
X433479D01*
X426919Y440379D01*
Y433819D01*
X433479Y427260D01*
X446598D01*
X453157Y420700D01*
Y414141D01*
X446598Y407581D01*
X433479D01*
X426919Y414141D01*
X466277Y446938D02*
Y407581D01*
X479396Y420700D01*
X492515Y407581D01*
Y446938D01*
X531872Y407581D02*
X505634D01*
X531872Y433819D01*
Y440379D01*
X525313Y446938D01*
X512194D01*
X505634Y440379D01*
X793955Y564294D02*
X787395Y570854D01*
X774276D01*
X767716Y564294D01*
Y538056D01*
X774276Y531496D01*
X787395D01*
X793955Y538056D01*
X807074Y531496D02*
X820193D01*
X813634D01*
Y570854D01*
X807074Y564294D01*
X839872Y570854D02*
X866110D01*
Y564294D01*
X839872Y538056D01*
Y531496D01*
X977412Y1204466D02*
Y1171668D01*
X983972Y1165108D01*
X997091D01*
X1003650Y1171668D01*
Y1204466D01*
X1043008D02*
X1016770D01*
Y1184787D01*
X1029889Y1191346D01*
X1036448D01*
X1043008Y1184787D01*
Y1171668D01*
X1036448Y1165108D01*
X1023329D01*
X1016770Y1171668D01*
X1616142Y206693D02*
Y246050D01*
X1635820D01*
X1642380Y239491D01*
Y226372D01*
X1635820Y219812D01*
X1616142D01*
X1681737Y206693D02*
X1655499D01*
X1681737Y232931D01*
Y239491D01*
X1675178Y246050D01*
X1662059D01*
X1655499Y239491D01*
X1190945Y295263D02*
Y262465D01*
X1197504Y255906D01*
X1210623D01*
X1217183Y262465D01*
Y295263D01*
X1256540Y255906D02*
X1230302D01*
X1256540Y282144D01*
Y288704D01*
X1249981Y295263D01*
X1236862D01*
X1230302Y288704D01*
X629921Y393688D02*
Y360890D01*
X636481Y354331D01*
X649600D01*
X656159Y360890D01*
Y393688D01*
X669279Y354331D02*
X682398D01*
X675838D01*
Y393688D01*
X669279Y387128D01*
X1610884Y967837D02*
X1604324Y974397D01*
X1591205D01*
X1584646Y967837D01*
Y961278D01*
X1591205Y954718D01*
X1604324D01*
X1610884Y948158D01*
Y941599D01*
X1604324Y935039D01*
X1591205D01*
X1584646Y941599D01*
X1624003Y974397D02*
Y935039D01*
X1637122Y948158D01*
X1650241Y935039D01*
Y974397D01*
X1663361Y935039D02*
X1676480D01*
X1669920D01*
Y974397D01*
X1663361Y967837D01*
X1381991Y1181102D02*
Y1220460D01*
X1401669D01*
X1408229Y1213900D01*
Y1200781D01*
X1401669Y1194222D01*
X1381991D01*
X1395110D02*
X1408229Y1181102D01*
X1421348Y1213900D02*
X1427908Y1220460D01*
X1441027D01*
X1447586Y1213900D01*
Y1207341D01*
X1441027Y1200781D01*
X1447586Y1194222D01*
Y1187662D01*
X1441027Y1181102D01*
X1427908D01*
X1421348Y1187662D01*
Y1194222D01*
X1427908Y1200781D01*
X1421348Y1207341D01*
Y1213900D01*
X1427908Y1200781D02*
X1441027D01*
X1377953Y987255D02*
Y1026612D01*
X1397631D01*
X1404191Y1020053D01*
Y1006933D01*
X1397631Y1000374D01*
X1377953D01*
X1391072D02*
X1404191Y987255D01*
X1443548Y1026612D02*
X1430429Y1020053D01*
X1417310Y1006933D01*
Y993814D01*
X1423870Y987255D01*
X1436989D01*
X1443548Y993814D01*
Y1000374D01*
X1436989Y1006933D01*
X1417310D01*
X1181102Y88583D02*
Y127940D01*
X1200781D01*
X1207341Y121380D01*
Y108261D01*
X1200781Y101702D01*
X1181102D01*
X1194222D02*
X1207341Y88583D01*
X1220460Y121380D02*
X1227019Y127940D01*
X1240139D01*
X1246698Y121380D01*
Y114821D01*
X1240139Y108261D01*
X1233579D01*
X1240139D01*
X1246698Y101702D01*
Y95142D01*
X1240139Y88583D01*
X1227019D01*
X1220460Y95142D01*
X531496Y354331D02*
Y393688D01*
X551175D01*
X557734Y387128D01*
Y374009D01*
X551175Y367450D01*
X531496D01*
X544615D02*
X557734Y354331D01*
X597092D02*
X570853D01*
X597092Y380569D01*
Y387128D01*
X590532Y393688D01*
X577413D01*
X570853Y387128D01*
X797244Y374016D02*
Y413373D01*
X816923D01*
X823482Y406813D01*
Y393694D01*
X816923Y387135D01*
X797244D01*
X810363D02*
X823482Y374016D01*
X836601D02*
X849721D01*
X843161D01*
Y413373D01*
X836601Y406813D01*
X39162Y262796D02*
Y302153D01*
X58841D01*
X65400Y295593D01*
Y282474D01*
X58841Y275915D01*
X39162D01*
X78520Y262796D02*
X91639D01*
X85079D01*
Y302153D01*
X78520Y295593D01*
X1279527Y1161405D02*
Y1122047D01*
X1299206D01*
X1305766Y1128607D01*
Y1154845D01*
X1299206Y1161405D01*
X1279527D01*
X1345123D02*
X1318885D01*
Y1141726D01*
X1332004Y1148285D01*
X1338564D01*
X1345123Y1141726D01*
Y1128607D01*
X1338564Y1122047D01*
X1325445D01*
X1318885Y1128607D01*
X1279528Y1082665D02*
Y1043307D01*
X1299206D01*
X1305766Y1049867D01*
Y1076105D01*
X1299206Y1082665D01*
X1279528D01*
X1338564Y1043307D02*
Y1082665D01*
X1318885Y1062986D01*
X1345123D01*
X1082677Y462586D02*
Y423229D01*
X1102356D01*
X1108915Y429788D01*
Y456026D01*
X1102356Y462586D01*
X1082677D01*
X1122034Y456026D02*
X1128594Y462586D01*
X1141713D01*
X1148273Y456026D01*
Y449467D01*
X1141713Y442907D01*
X1135153D01*
X1141713D01*
X1148273Y436348D01*
Y429788D01*
X1141713Y423229D01*
X1128594D01*
X1122034Y429788D01*
X836614Y216523D02*
Y177165D01*
X856293D01*
X862852Y183725D01*
Y209963D01*
X856293Y216523D01*
X836614D01*
X902210Y177165D02*
X875972D01*
X902210Y203404D01*
Y209963D01*
X895650Y216523D01*
X882531D01*
X875972Y209963D01*
X1387795Y255893D02*
Y216535D01*
X1407474D01*
X1414033Y223095D01*
Y249333D01*
X1407474Y255893D01*
X1387795D01*
X1427153Y216535D02*
X1440272D01*
X1433712D01*
Y255893D01*
X1427153Y249333D01*
X1000647Y456026D02*
X994088Y462586D01*
X980969D01*
X974409Y456026D01*
Y429788D01*
X980969Y423229D01*
X994088D01*
X1000647Y429788D01*
X1013766Y462586D02*
X1040005D01*
Y456026D01*
X1013766Y429788D01*
Y423229D01*
X961277Y180436D02*
X954718Y186995D01*
X941599D01*
X935039Y180436D01*
Y154198D01*
X941599Y147638D01*
X954718D01*
X961277Y154198D01*
X994075Y147638D02*
Y186995D01*
X974396Y167317D01*
X1000635D01*
X961277Y121381D02*
X954718Y127940D01*
X941599D01*
X935039Y121381D01*
Y95143D01*
X941599Y88583D01*
X954718D01*
X961277Y95143D01*
X974396Y121381D02*
X980956Y127940D01*
X994075D01*
X1000635Y121381D01*
Y114821D01*
X994075Y108262D01*
X987516D01*
X994075D01*
X1000635Y101702D01*
Y95143D01*
X994075Y88583D01*
X980956D01*
X974396Y95143D01*
X646317Y180436D02*
X639757Y186995D01*
X626638D01*
X620079Y180436D01*
Y154197D01*
X626638Y147638D01*
X639757D01*
X646317Y154197D01*
X685674Y147638D02*
X659436D01*
X685674Y173876D01*
Y180436D01*
X679115Y186995D01*
X665996D01*
X659436Y180436D01*
X557734Y190278D02*
X551175Y196838D01*
X538056D01*
X531496Y190278D01*
Y164040D01*
X538056Y157480D01*
X551175D01*
X557734Y164040D01*
X570854Y157480D02*
X583973D01*
X577413D01*
Y196838D01*
X570854Y190278D01*
D68*
X387237Y529386D02*
D03*
D69*
X1306099Y80708D02*
D03*
X1306100Y194880D02*
D03*
%TF.MD5,4f11cda7e499e7996715c44807ab00a8*%
M02*
