%TF.GenerationSoftware,Altium Limited,Altium Designer,18.1.9 (240)*%
G04 Layer_Physical_Order=2*
G04 Layer_Color=16711680*
%FSLAX26Y26*%
%MOIN*%
%TF.FileFunction,Copper,L2,Bot,Signal*%
%TF.Part,Single*%
G01*
G75*
%TA.AperFunction,SMDPad,CuDef*%
%ADD11R,0.023622X0.035433*%
%ADD23R,0.035433X0.023622*%
%TA.AperFunction,Conductor*%
%ADD26C,0.020000*%
%ADD27C,0.015000*%
%ADD28C,0.010000*%
%TA.AperFunction,ViaPad*%
%ADD31C,0.055118*%
%ADD32C,0.023622*%
%TA.AperFunction,SMDPad,CuDef*%
%ADD33R,0.094488X0.023622*%
%ADD34R,0.110236X0.086614*%
%ADD35R,0.023622X0.050000*%
%ADD36R,0.023622X0.050000*%
%ADD37R,0.047244X0.078740*%
%ADD38O,0.039370X0.059055*%
%ADD39R,0.047244X0.055118*%
%ADD40O,0.057087X0.009842*%
%ADD41O,0.009842X0.057087*%
%ADD42R,0.009842X0.023622*%
%ADD43R,0.118110X0.102362*%
G36*
X285591Y1170498D02*
X291633Y1173001D01*
X294313Y1175057D01*
X295353Y1175025D01*
X299712Y1172897D01*
X301254Y1165148D01*
X306779Y1156878D01*
X319567Y1144090D01*
Y1086299D01*
X324488D01*
Y1053307D01*
X356299D01*
Y1033307D01*
X324488D01*
Y1000315D01*
X319567D01*
Y993994D01*
X314961D01*
X305206Y992053D01*
X296937Y986528D01*
X295123Y984715D01*
X290134Y985042D01*
X288436Y987255D01*
X281791Y992354D01*
X275748Y994857D01*
Y965342D01*
X274973Y964567D01*
X255748D01*
Y995157D01*
X251868Y997749D01*
Y1172591D01*
X256868Y1175057D01*
X259548Y1173001D01*
X265591Y1170498D01*
Y1200787D01*
X285591D01*
Y1170498D01*
D02*
G37*
G36*
X771754Y1100709D02*
X748189D01*
Y1062992D01*
X738189D01*
Y1052992D01*
X706378D01*
Y1027290D01*
X698529D01*
Y950960D01*
X693552Y946849D01*
X693529Y946849D01*
X687323Y953056D01*
Y976693D01*
X551063D01*
X549440Y980610D01*
X544341Y987255D01*
X537696Y992354D01*
X529958Y995559D01*
X521654Y996652D01*
X513349Y995559D01*
X505611Y992354D01*
X504719Y991669D01*
X504144Y992053D01*
X494389Y993994D01*
X487520D01*
Y1000315D01*
X482598D01*
Y1033307D01*
X450787D01*
Y1053307D01*
X482598D01*
Y1086299D01*
X487520D01*
Y1149921D01*
X491150Y1153228D01*
X514023D01*
Y1200056D01*
X771754D01*
Y1100709D01*
D02*
G37*
G36*
X1572093Y1139359D02*
X1571800Y1134892D01*
X1566701Y1128247D01*
X1564198Y1122205D01*
X1589244D01*
X1594488Y1116961D01*
Y1112205D01*
X1599244D01*
X1604488Y1106961D01*
Y1081915D01*
X1610531Y1084418D01*
X1617176Y1089517D01*
X1621642Y1089810D01*
X1702025Y1009427D01*
Y790657D01*
X1697025Y788960D01*
X1695916Y790404D01*
X1689271Y795503D01*
X1681533Y798709D01*
X1677792Y799201D01*
X1675512Y801481D01*
Y834961D01*
X1552835D01*
Y832126D01*
X1549075Y828829D01*
X1545276Y829330D01*
X1536971Y828236D01*
X1529233Y825031D01*
X1522588Y819932D01*
X1517489Y813287D01*
X1514283Y805548D01*
X1514280Y805519D01*
X1508749Y801816D01*
X1502953Y802968D01*
X1475471D01*
X1473557Y807588D01*
X1563300Y897330D01*
X1568825Y905600D01*
X1570765Y915354D01*
Y1024271D01*
X1573062Y1027264D01*
X1576268Y1035003D01*
X1577361Y1043307D01*
X1576268Y1051611D01*
X1573062Y1059350D01*
X1567964Y1065995D01*
X1561318Y1071094D01*
X1553580Y1074299D01*
X1545276Y1075393D01*
X1536971Y1074299D01*
X1529233Y1071094D01*
X1522588Y1065995D01*
X1517489Y1059350D01*
X1514283Y1051611D01*
X1513190Y1043307D01*
X1514283Y1035003D01*
X1517489Y1027264D01*
X1519786Y1024271D01*
Y925913D01*
X1437509Y843636D01*
X1432890Y845549D01*
Y873032D01*
X1430956Y882755D01*
X1425447Y890999D01*
X1417204Y896507D01*
X1407480Y898441D01*
X1397756Y896507D01*
X1397638Y896428D01*
X1397519Y896507D01*
X1387795Y898441D01*
X1378072Y896507D01*
X1377953Y896428D01*
X1377834Y896507D01*
X1368110Y898441D01*
X1358386Y896507D01*
X1358268Y896428D01*
X1358149Y896507D01*
X1348425Y898441D01*
X1338701Y896507D01*
X1338583Y896428D01*
X1338464Y896507D01*
X1328740Y898441D01*
X1319016Y896507D01*
X1318898Y896428D01*
X1318779Y896507D01*
X1309055Y898441D01*
X1299331Y896507D01*
X1299213Y896428D01*
X1299094Y896507D01*
X1289370Y898441D01*
X1280214Y896620D01*
X1275490Y899285D01*
Y926851D01*
X1281811D01*
Y1002284D01*
X1200945D01*
Y964567D01*
X1180945D01*
Y1002284D01*
X1159749D01*
X1140071Y1021961D01*
X1131802Y1027486D01*
X1122047Y1029427D01*
X973761D01*
X970767Y1031724D01*
X963029Y1034929D01*
X954724Y1036023D01*
X946420Y1034929D01*
X938682Y1031724D01*
X932037Y1026625D01*
X928200D01*
X921554Y1031724D01*
X913816Y1034929D01*
X905512Y1036023D01*
X897207Y1034929D01*
X889469Y1031724D01*
X882824Y1026625D01*
X877725Y1019980D01*
X874520Y1012241D01*
X873426Y1003937D01*
X874520Y995633D01*
X877725Y987894D01*
X882824Y981249D01*
X889469Y976150D01*
X897207Y972945D01*
X900948Y972452D01*
X917015Y956385D01*
X925285Y950860D01*
X935039Y948920D01*
X1069180D01*
X1071958Y944762D01*
X1071370Y943344D01*
X1070878Y939603D01*
X973694Y842419D01*
X934391D01*
X931397Y844716D01*
X923659Y847921D01*
X915354Y849015D01*
X907050Y847921D01*
X899312Y844716D01*
X892666Y839617D01*
X887567Y832972D01*
X884362Y825233D01*
X883269Y816929D01*
X884362Y808625D01*
X887567Y800886D01*
X892666Y794241D01*
X897218Y790748D01*
X895521Y785748D01*
X866299D01*
Y748032D01*
X856299D01*
Y738032D01*
X824488D01*
Y720788D01*
X808740D01*
Y683229D01*
X852362D01*
Y663229D01*
X808740D01*
Y625670D01*
Y539055D01*
X824488D01*
Y497931D01*
X757225D01*
X754232Y500228D01*
X746493Y503433D01*
X738189Y504526D01*
X737910Y504490D01*
X734151Y507786D01*
Y540623D01*
X742752Y549224D01*
X746493Y549716D01*
X754232Y552922D01*
X760877Y558021D01*
X765976Y564666D01*
X769181Y572404D01*
X770274Y580709D01*
X769181Y589013D01*
X765976Y596751D01*
X760877Y603397D01*
X754232Y608496D01*
X746493Y611701D01*
X738189Y612794D01*
X729885Y611701D01*
X728465Y611113D01*
X724307Y613891D01*
Y744377D01*
X728465Y747155D01*
X729885Y746567D01*
X738189Y745474D01*
X746493Y746567D01*
X754232Y749772D01*
X760877Y754871D01*
X765976Y761516D01*
X769181Y769255D01*
X770274Y777559D01*
X771725Y779213D01*
X787244D01*
Y816929D01*
X797244D01*
Y826929D01*
X829055D01*
Y842802D01*
X836955D01*
Y932294D01*
X836955Y932802D01*
X836955D01*
X836929Y937284D01*
X836929D01*
Y1027284D01*
X830608D01*
Y1055118D01*
X829055Y1062925D01*
Y1100709D01*
X822734D01*
Y1200056D01*
X1511396D01*
X1572093Y1139359D01*
D02*
G37*
G36*
X1086715Y876811D02*
Y849409D01*
X1086795Y849005D01*
Y825787D01*
X1088729Y816064D01*
X1094237Y807820D01*
X1102481Y802312D01*
X1112205Y800378D01*
X1121928Y802312D01*
X1122047Y802391D01*
X1122166Y802312D01*
X1131890Y800378D01*
X1141614Y802312D01*
X1141732Y802391D01*
X1141851Y802312D01*
X1151575Y800378D01*
X1161299Y802312D01*
X1161417Y802391D01*
X1161536Y802312D01*
X1171260Y800378D01*
X1180984Y802312D01*
X1181102Y802391D01*
X1181221Y802312D01*
X1190945Y800378D01*
X1200669Y802312D01*
X1200787Y802391D01*
X1200906Y802312D01*
X1210630Y800378D01*
X1220354Y802312D01*
X1220473Y802391D01*
X1220591Y802312D01*
X1230315Y800378D01*
X1240039Y802312D01*
X1240158Y802391D01*
X1240276Y802312D01*
X1250000Y800378D01*
X1259724Y802312D01*
X1259842Y802391D01*
X1259961Y802312D01*
X1269685Y800378D01*
X1279409Y802312D01*
X1279527Y802391D01*
X1279646Y802312D01*
X1289370Y800378D01*
X1299094Y802312D01*
X1299213Y802391D01*
X1299331Y802312D01*
X1309055Y800378D01*
X1318779Y802312D01*
X1318898Y802391D01*
X1319016Y802312D01*
X1328740Y800378D01*
X1338464Y802312D01*
X1338583Y802391D01*
X1338701Y802312D01*
X1348425Y800378D01*
X1358149Y802312D01*
X1358268Y802391D01*
X1358386Y802312D01*
X1368110Y800378D01*
X1377834Y802312D01*
X1377953Y802391D01*
X1378072Y802312D01*
X1387795Y800378D01*
X1397519Y802312D01*
X1397612Y802374D01*
X1397688Y802358D01*
X1397756Y802312D01*
X1400095Y801847D01*
X1402490Y801339D01*
X1401676Y797244D01*
Y728346D01*
X1403616Y718592D01*
X1409141Y710322D01*
X1418984Y700480D01*
X1427253Y694955D01*
X1431225Y694164D01*
X1432233Y689095D01*
X1432313Y688976D01*
X1432233Y688858D01*
X1430299Y679134D01*
X1432233Y669410D01*
X1432313Y669291D01*
X1432233Y669173D01*
X1430299Y659449D01*
X1432233Y649725D01*
X1432313Y649606D01*
X1432233Y649488D01*
X1430299Y639764D01*
X1432120Y630607D01*
X1429455Y625884D01*
X1348425D01*
X1338671Y623943D01*
X1330401Y618418D01*
X1318182Y606198D01*
X1269036D01*
X1266043Y608496D01*
X1258304Y611701D01*
X1250000Y612794D01*
X1241696Y611701D01*
X1233957Y608496D01*
X1230964Y606198D01*
X1206103D01*
X1205109Y611198D01*
X1206988Y611977D01*
X1213633Y617076D01*
X1218732Y623721D01*
X1221235Y629764D01*
X1160655D01*
X1163158Y623721D01*
X1168257Y617076D01*
X1174902Y611977D01*
X1176781Y611198D01*
X1175787Y606198D01*
X1090230D01*
X1087564Y610922D01*
X1089386Y620079D01*
X1087452Y629803D01*
X1087372Y629921D01*
X1087452Y630040D01*
X1089386Y639764D01*
X1087452Y649488D01*
X1087372Y649606D01*
X1087452Y649725D01*
X1089386Y659449D01*
X1087452Y669173D01*
X1087372Y669291D01*
X1087452Y669410D01*
X1089386Y679134D01*
X1087452Y688858D01*
X1087372Y688976D01*
X1087452Y689095D01*
X1089386Y698819D01*
X1087564Y707975D01*
X1090230Y712699D01*
X1250649D01*
X1253642Y710402D01*
X1261381Y707197D01*
X1269685Y706104D01*
X1277989Y707197D01*
X1285728Y710402D01*
X1292373Y715501D01*
X1297472Y722146D01*
X1300677Y729885D01*
X1301771Y738189D01*
X1300677Y746493D01*
X1297472Y754232D01*
X1292373Y760877D01*
X1285728Y765976D01*
X1277989Y769181D01*
X1269685Y770274D01*
X1261381Y769181D01*
X1253642Y765976D01*
X1250649Y763679D01*
X1090230D01*
X1087564Y768403D01*
X1089386Y777559D01*
X1087452Y787283D01*
X1081944Y795526D01*
X1073700Y801034D01*
X1063976Y802968D01*
X1016732D01*
X1012586Y802144D01*
X1010122Y806752D01*
X1082095Y878725D01*
X1086715Y876811D01*
D02*
G37*
G36*
X1667424Y668576D02*
Y638110D01*
X1653701D01*
Y600394D01*
Y562677D01*
X1667424D01*
Y543132D01*
X1664924Y542803D01*
X1657186Y539598D01*
X1650540Y534499D01*
X1645441Y527854D01*
X1642236Y520115D01*
X1641143Y511811D01*
X1642236Y503507D01*
X1645441Y495768D01*
X1650540Y489123D01*
X1657186Y484024D01*
X1664924Y480819D01*
X1673228Y479726D01*
X1681533Y480819D01*
X1689271Y484024D01*
X1695916Y489123D01*
X1697025Y490567D01*
X1702025Y488870D01*
Y481038D01*
X1693743Y472756D01*
X1633543D01*
Y354016D01*
X1693743D01*
X1702025Y345734D01*
Y248754D01*
X1650852Y197582D01*
X1556999D01*
X1554243Y202582D01*
X1555880Y206535D01*
X1495301D01*
X1496938Y202582D01*
X1494182Y197582D01*
X1114086D01*
X1111329Y202582D01*
X1112967Y206535D01*
X1082677D01*
Y226535D01*
X1112967D01*
X1110464Y232578D01*
X1108408Y235258D01*
X1110873Y240258D01*
X1171260D01*
X1181014Y242198D01*
X1189284Y247724D01*
X1208961Y267402D01*
X1259685D01*
Y305118D01*
Y342835D01*
X1255805D01*
Y360557D01*
X1260529Y363223D01*
X1269685Y361402D01*
X1279409Y363336D01*
X1279527Y363415D01*
X1279646Y363336D01*
X1289370Y361402D01*
X1299094Y363336D01*
X1299213Y363415D01*
X1299331Y363336D01*
X1309055Y361402D01*
X1318779Y363336D01*
X1318898Y363415D01*
X1319016Y363336D01*
X1328740Y361402D01*
X1337897Y363223D01*
X1342620Y360557D01*
Y324803D01*
X1344561Y315049D01*
X1350086Y306779D01*
X1369771Y287094D01*
X1378041Y281569D01*
X1387795Y279628D01*
X1552835D01*
Y267402D01*
X1633701D01*
Y305118D01*
Y342835D01*
X1610135D01*
Y379921D01*
X1608195Y389676D01*
X1602670Y397945D01*
X1594803Y405812D01*
Y472756D01*
X1530408D01*
X1527236Y476621D01*
X1528362Y482284D01*
X1526428Y492007D01*
X1526349Y492126D01*
X1526428Y492245D01*
X1528362Y501969D01*
X1526428Y511692D01*
X1526349Y511811D01*
X1526428Y511930D01*
X1528362Y521654D01*
X1526428Y531377D01*
X1526349Y531496D01*
X1526428Y531615D01*
X1528362Y541339D01*
X1526428Y551062D01*
X1526349Y551181D01*
X1526428Y551300D01*
X1528362Y561024D01*
X1526541Y570180D01*
X1529207Y574904D01*
X1552835D01*
Y562677D01*
X1633701D01*
Y600394D01*
Y638110D01*
X1586741D01*
X1584670Y643110D01*
X1602670Y661110D01*
X1608195Y669379D01*
X1610135Y679134D01*
Y690630D01*
X1645369D01*
X1667424Y668576D01*
D02*
G37*
G36*
X498966Y764714D02*
X505611Y759615D01*
X513349Y756409D01*
X517090Y755917D01*
X636818Y636189D01*
Y598206D01*
X634521Y595212D01*
X631316Y587474D01*
X630223Y579169D01*
X631316Y570865D01*
X634521Y563127D01*
X639620Y556481D01*
X646265Y551382D01*
X654004Y548177D01*
X662308Y547084D01*
X670612Y548177D01*
X678351Y551382D01*
X683172Y548779D01*
Y452756D01*
X685112Y443001D01*
X690637Y434732D01*
X700480Y424889D01*
X708749Y419364D01*
X718504Y417424D01*
X824488D01*
Y405197D01*
X830809D01*
Y392047D01*
X824488D01*
Y316614D01*
X832438D01*
X832750Y315049D01*
X838275Y306779D01*
X848118Y296937D01*
X856387Y291411D01*
X866142Y289471D01*
X935039D01*
X944794Y291411D01*
X953063Y296937D01*
X962906Y306779D01*
X968431Y315049D01*
X968743Y316614D01*
X968745D01*
X970374Y324803D01*
Y354331D01*
X984410D01*
Y316614D01*
X1007975D01*
Y284784D01*
X1005678Y281791D01*
X1002472Y274052D01*
X1001379Y265748D01*
X1002472Y257444D01*
X1003206Y255673D01*
Y206693D01*
X1004237Y198861D01*
X1007260Y191563D01*
X1012068Y185297D01*
X1051438Y145927D01*
X1057705Y141118D01*
X1065003Y138095D01*
X1072835Y137064D01*
X1128634D01*
X1130331Y132064D01*
X1128887Y130956D01*
X1123788Y124310D01*
X1121285Y118268D01*
X1181865D01*
X1179362Y124310D01*
X1174263Y130956D01*
X1172818Y132064D01*
X1174516Y137064D01*
X1663386D01*
X1671217Y138095D01*
X1678515Y141118D01*
X1684782Y145927D01*
X1723801Y184945D01*
X1728039Y182113D01*
X1721742Y166909D01*
X1708155Y142325D01*
X1691900Y119416D01*
X1673182Y98471D01*
X1652238Y79754D01*
X1629329Y63499D01*
X1604744Y49912D01*
X1578793Y39162D01*
X1551801Y31386D01*
X1524108Y26681D01*
X1497568Y25190D01*
X1496063Y25490D01*
X280549Y25490D01*
X280540Y25490D01*
X275591Y25490D01*
Y25490D01*
X270634Y25384D01*
X247545Y26681D01*
X219852Y31386D01*
X192861Y39162D01*
X166909Y49912D01*
X142325Y63499D01*
X119416Y79754D01*
X98471Y98471D01*
X79754Y119416D01*
X63499Y142325D01*
X49912Y166909D01*
X39162Y192861D01*
X31386Y219852D01*
X26681Y247545D01*
X25191Y274085D01*
X25490Y275591D01*
Y433071D01*
X25220Y434430D01*
X26870Y446969D01*
X32235Y459921D01*
X40769Y471042D01*
X51890Y479576D01*
X64842Y484941D01*
X77381Y486592D01*
X78740Y486321D01*
X147638D01*
X149044Y486601D01*
X155463Y487106D01*
X158075Y482296D01*
X156555Y480315D01*
X150830Y475922D01*
X144469Y467632D01*
X140470Y457979D01*
X139106Y447619D01*
Y427934D01*
X140470Y417574D01*
X144469Y407920D01*
X150830Y399630D01*
X159120Y393269D01*
X168774Y389270D01*
X179134Y387906D01*
X189494Y389270D01*
X199148Y393269D01*
X206693Y399059D01*
X214238Y393269D01*
X223892Y389270D01*
X234252Y387906D01*
X244612Y389270D01*
X254266Y393269D01*
X262556Y399630D01*
X268917Y407920D01*
X272916Y417574D01*
X274279Y427934D01*
Y438577D01*
X319777Y484074D01*
X350079D01*
Y361890D01*
X500315D01*
Y488504D01*
X410266D01*
X408420Y493504D01*
X417280Y502364D01*
X530404D01*
X533398Y500067D01*
X541136Y496862D01*
X549440Y495768D01*
X557745Y496862D01*
X565483Y500067D01*
X572128Y505166D01*
X577227Y511811D01*
X580433Y519549D01*
X581526Y527854D01*
X580433Y536158D01*
X577227Y543897D01*
X572128Y550542D01*
X565483Y555641D01*
X557745Y558846D01*
X549440Y559939D01*
X541136Y558846D01*
X533398Y555641D01*
X530404Y553344D01*
X431281D01*
Y569220D01*
X452684Y590623D01*
X457092Y596368D01*
X459863Y603057D01*
X460808Y610236D01*
Y751609D01*
X460858Y751674D01*
X464063Y759412D01*
X465156Y767716D01*
X468333Y771339D01*
X493882D01*
X498966Y764714D01*
D02*
G37*
%LPC*%
G36*
X728189Y1100709D02*
X706378D01*
Y1072992D01*
X728189D01*
Y1100709D01*
D02*
G37*
G36*
X1082835Y1181865D02*
Y1161575D01*
X1103124D01*
X1100621Y1167618D01*
X1095523Y1174263D01*
X1088877Y1179362D01*
X1082835Y1181865D01*
D02*
G37*
G36*
X1062835D02*
X1056792Y1179362D01*
X1050147Y1174263D01*
X1045048Y1167618D01*
X1042545Y1161575D01*
X1062835D01*
Y1181865D01*
D02*
G37*
G36*
X1103124Y1141575D02*
X1082835D01*
Y1121285D01*
X1088877Y1123788D01*
X1095523Y1128887D01*
X1100621Y1135532D01*
X1103124Y1141575D01*
D02*
G37*
G36*
X1062835D02*
X1042545D01*
X1045048Y1135532D01*
X1050147Y1128887D01*
X1056792Y1123788D01*
X1062835Y1121285D01*
Y1141575D01*
D02*
G37*
G36*
X1584488Y1102205D02*
X1564198D01*
X1566701Y1096162D01*
X1571800Y1089517D01*
X1578446Y1084418D01*
X1584488Y1081915D01*
Y1102205D01*
D02*
G37*
G36*
X829055Y806929D02*
X807244D01*
Y779213D01*
X824488D01*
Y758032D01*
X846299D01*
Y785748D01*
X829055D01*
Y806929D01*
D02*
G37*
G36*
X1200945Y670054D02*
Y649764D01*
X1221235D01*
X1218732Y655807D01*
X1213633Y662452D01*
X1206988Y667551D01*
X1200945Y670054D01*
D02*
G37*
G36*
X1180945D02*
X1174902Y667551D01*
X1168257Y662452D01*
X1163158Y655807D01*
X1160655Y649764D01*
X1180945D01*
Y670054D01*
D02*
G37*
G36*
X1675512Y342835D02*
X1653701D01*
Y315118D01*
X1675512D01*
Y342835D01*
D02*
G37*
G36*
X1301496D02*
X1279685D01*
Y315118D01*
X1301496D01*
Y342835D01*
D02*
G37*
G36*
X1675512Y295118D02*
X1653701D01*
Y267402D01*
X1675512D01*
Y295118D01*
D02*
G37*
G36*
X1301496D02*
X1279685D01*
Y267402D01*
X1301496D01*
Y295118D01*
D02*
G37*
G36*
X1535591Y246825D02*
Y226535D01*
X1555880D01*
X1553378Y232578D01*
X1548278Y239223D01*
X1541633Y244322D01*
X1535591Y246825D01*
D02*
G37*
G36*
X1515591D02*
X1509548Y244322D01*
X1502903Y239223D01*
X1497804Y232578D01*
X1495301Y226535D01*
X1515591D01*
Y246825D01*
D02*
G37*
G36*
X177323Y322243D02*
Y285591D01*
X213976D01*
X213658Y288006D01*
X208865Y299575D01*
X201242Y309510D01*
X191308Y317133D01*
X179738Y321925D01*
X177323Y322243D01*
D02*
G37*
G36*
X157323D02*
X154907Y321925D01*
X143338Y317133D01*
X133403Y309510D01*
X125780Y299575D01*
X120988Y288006D01*
X120670Y285591D01*
X157323D01*
Y322243D01*
D02*
G37*
G36*
X213976Y265591D02*
X177323D01*
Y228938D01*
X179738Y229256D01*
X191308Y234048D01*
X201242Y241671D01*
X208865Y251606D01*
X213658Y263175D01*
X213976Y265591D01*
D02*
G37*
G36*
X157323D02*
X120670D01*
X120988Y263175D01*
X125780Y251606D01*
X133403Y241671D01*
X143338Y234048D01*
X154907Y229256D01*
X157323Y228938D01*
Y265591D01*
D02*
G37*
G36*
X511969Y197613D02*
Y177323D01*
X532258D01*
X529755Y183366D01*
X524656Y190011D01*
X518011Y195110D01*
X511969Y197613D01*
D02*
G37*
G36*
X491969D02*
X485926Y195110D01*
X479281Y190011D01*
X474182Y183366D01*
X471679Y177323D01*
X491969D01*
Y197613D01*
D02*
G37*
G36*
X532258Y157323D02*
X511969D01*
Y137033D01*
X518011Y139536D01*
X524656Y144635D01*
X529755Y151280D01*
X532258Y157323D01*
D02*
G37*
G36*
X491969D02*
X471679D01*
X474182Y151280D01*
X479281Y144635D01*
X485926Y139536D01*
X491969Y137033D01*
Y157323D01*
D02*
G37*
G36*
X1181865Y98268D02*
X1161575D01*
Y77978D01*
X1167618Y80481D01*
X1174263Y85580D01*
X1179362Y92225D01*
X1181865Y98268D01*
D02*
G37*
G36*
X1141575D02*
X1121285D01*
X1123788Y92225D01*
X1128887Y85580D01*
X1135532Y80481D01*
X1141575Y77978D01*
Y98268D01*
D02*
G37*
%LPD*%
D11*
X738189Y816929D02*
D03*
X797244D02*
D03*
Y1062992D02*
D03*
X738189D02*
D03*
X1269685Y305118D02*
D03*
X1210630D02*
D03*
X423156Y1190945D02*
D03*
X482212D02*
D03*
X1643701Y797244D02*
D03*
X1584646D02*
D03*
Y728346D02*
D03*
X1643701D02*
D03*
X915354Y354331D02*
D03*
X856299D02*
D03*
X915354Y442913D02*
D03*
X856299D02*
D03*
X974409Y354331D02*
D03*
X1033465D02*
D03*
X1643701Y600394D02*
D03*
X1584646D02*
D03*
X1643701Y305118D02*
D03*
X1584646D02*
D03*
X915354Y748032D02*
D03*
X856299D02*
D03*
X915354Y511811D02*
D03*
X856299D02*
D03*
X1190945Y964567D02*
D03*
X1250000D02*
D03*
D23*
X580709Y885827D02*
D03*
Y944882D02*
D03*
X649606D02*
D03*
Y885827D02*
D03*
D26*
X267286Y1013779D02*
X442913D01*
X423156Y1190945D02*
Y1216064D01*
X437407Y1230315D02*
X1523929D01*
X423156Y1216064D02*
X437407Y1230315D01*
X1523929D02*
X1732284Y1021961D01*
Y468504D02*
Y1021961D01*
X452756Y1003937D02*
X679134D01*
X265748Y964567D02*
Y1012241D01*
X442913Y1013779D02*
X452756Y1003937D01*
X265748Y1012241D02*
X267286Y1013779D01*
X501969Y167323D02*
X561024Y108268D01*
X974409D01*
X1190945Y964567D02*
Y1033465D01*
X1072835Y1151575D02*
X1190945Y1033465D01*
X974409Y108268D02*
X1151575D01*
X1677165Y413386D02*
X1732284Y468504D01*
X1033465Y206693D02*
Y265748D01*
Y206693D02*
X1072835Y167323D01*
X1663386D01*
X1732284Y236220D01*
Y358268D01*
X1677165Y413386D02*
X1732284Y358268D01*
X698819Y1062992D02*
X738189D01*
X688976Y1053150D02*
X698819Y1062992D01*
X688976Y1013779D02*
Y1053150D01*
X679134Y1003937D02*
X688976Y1013779D01*
D27*
X255905Y590551D02*
Y659449D01*
Y541339D02*
Y590551D01*
X334646Y773917D02*
Y875984D01*
Y773917D02*
X350688Y757874D01*
X383858D01*
X255905Y909449D02*
X265748Y919291D01*
X255905Y679134D02*
Y909449D01*
X387501Y511812D02*
X403543Y527854D01*
X308287Y511812D02*
X387501D01*
X234252Y437776D02*
X308287Y511812D01*
X403543Y527854D02*
Y580709D01*
X179134Y437776D02*
Y464567D01*
X1525591Y216535D02*
X1614173D01*
X1299213D02*
X1525591D01*
X1643701Y600394D02*
X1643701Y600394D01*
Y531496D02*
Y600394D01*
X1614173Y501968D02*
X1643701Y531496D01*
X1614173Y334646D02*
Y501968D01*
Y334646D02*
X1643701Y305118D01*
Y246063D02*
Y305118D01*
X1614173Y216535D02*
X1643701Y246063D01*
X1269685Y246063D02*
X1299213Y216535D01*
X974409Y108268D02*
Y354331D01*
X1269685Y246063D02*
Y305118D01*
X1240157Y216535D02*
X1269685Y246063D01*
X1082677Y216535D02*
X1240157D01*
X856299Y748032D02*
Y797245D01*
X836614Y816929D02*
X856299Y797245D01*
X797244Y816929D02*
X836614D01*
X767742Y846431D02*
X797244Y816929D01*
X767742Y846431D02*
Y982290D01*
X403543Y580709D02*
X433071Y610236D01*
Y767716D01*
X383858Y757874D02*
X403543Y738189D01*
Y639764D02*
Y738189D01*
X393701Y629921D02*
X403543Y639764D01*
X334646Y629921D02*
X393701D01*
X255905Y679134D02*
X265748Y669291D01*
X334646D01*
X255905Y659449D02*
X265748Y669291D01*
X179134Y464567D02*
X255905Y541339D01*
X334646Y590551D02*
X393701D01*
X403543Y580709D01*
D28*
Y527854D02*
X549440D01*
X662308Y579169D02*
Y646747D01*
X521654Y787402D02*
X662308Y646747D01*
X698817Y580707D02*
Y777561D01*
X688976Y787402D02*
X698817Y777561D01*
X388858Y1173653D02*
Y1177509D01*
Y1177933D01*
Y1177509D02*
X403543Y1162824D01*
Y1118110D02*
Y1162824D01*
X423228Y1181102D02*
X442913Y1161417D01*
X797244Y1062992D02*
Y1220472D01*
X364173Y1161417D02*
X383858Y1141732D01*
Y1118110D02*
Y1141732D01*
X364173Y1118110D02*
Y1135532D01*
X324803Y1174902D02*
X364173Y1135532D01*
Y1161417D02*
Y1210630D01*
X324803Y1174902D02*
Y1220472D01*
X442913Y1118110D02*
Y1161417D01*
X462598Y1118110D02*
Y1161417D01*
X482284Y1181102D01*
X344488Y1102362D02*
X403543Y1043307D01*
X344488Y1102362D02*
Y1118110D01*
X403543Y1043307D02*
X462598Y1102362D01*
Y1118110D01*
X730341Y824778D02*
X738189Y816929D01*
X701102Y854016D02*
X730341Y824778D01*
X403543Y922294D02*
Y968504D01*
Y922294D02*
X427397Y898441D01*
X423228Y936693D02*
X440630Y919291D01*
X423228Y936693D02*
Y968504D01*
X427397Y898441D02*
X496639D01*
X334646Y875984D02*
X383858Y925197D01*
X344488Y932294D02*
X364173Y951979D01*
X496639Y898441D02*
X541064Y854016D01*
X440630Y919291D02*
X547244D01*
X450160Y939603D02*
X575429D01*
X442913Y946849D02*
X450160Y939603D01*
X541064Y854016D02*
X701102D01*
X547244Y919291D02*
X580709Y885827D01*
X442913Y946849D02*
Y968504D01*
X575429Y939603D02*
X580709Y944882D01*
X498326Y964567D02*
X521654D01*
X494389Y968504D02*
X498326Y964567D01*
X462598Y968504D02*
X494389D01*
X383858Y925197D02*
Y968504D01*
X364173Y951979D02*
Y968504D01*
X314961D02*
X344488D01*
X265748Y919291D02*
X314961Y968504D01*
X1040354Y738189D02*
X1269685D01*
X738189Y816929D02*
X738189Y816929D01*
Y777559D02*
Y816929D01*
X915354Y816929D02*
X984252D01*
X1102362Y935039D01*
X1112205Y849409D02*
Y891173D01*
X1131890Y910858D01*
Y958047D01*
X1115527Y974409D02*
X1131890Y958047D01*
X935039Y974409D02*
X1115527D01*
X1122047Y1003937D02*
X1151575Y974409D01*
Y905266D02*
Y974409D01*
X1131890Y849409D02*
Y885581D01*
X1151575Y905266D01*
X1131890Y531496D02*
Y531496D01*
Y531496D02*
X1181102Y482284D01*
X1368110D01*
X1387795Y501969D01*
X1417323D01*
X1437008Y482284D01*
X1479331D01*
X1407480Y410433D02*
Y472441D01*
X1338583Y541339D02*
X1479331D01*
X1328740Y551181D02*
X1338583Y541339D01*
X1299213Y551181D02*
X1328740D01*
X1338583Y521654D02*
X1427166D01*
X1328740Y511811D02*
X1338583Y521654D01*
X1299213Y511811D02*
X1328740D01*
X1033465Y265748D02*
X1171260D01*
X1210630Y305118D01*
X979409Y487283D02*
Y546338D01*
X935039Y442913D02*
X979409Y487283D01*
X915354Y442913D02*
X935039D01*
X1348425Y600394D02*
X1479331D01*
X1328740Y580709D02*
X1348425Y600394D01*
X1250000Y580709D02*
X1328740D01*
X1545276Y797244D02*
X1545276Y797244D01*
X1584646D01*
X1545276Y915354D02*
Y1043307D01*
X1427165Y797244D02*
X1545276Y915354D01*
X1427165Y728346D02*
Y797244D01*
Y728346D02*
X1437008Y718504D01*
X1479331D01*
X1466535Y364173D02*
Y442913D01*
X1456693Y354331D02*
X1466535Y364173D01*
X1397638Y354331D02*
X1456693D01*
X1387795Y364173D02*
X1397638Y354331D01*
X1387795Y364173D02*
Y410433D01*
X1190945Y639764D02*
X1250000D01*
X1040354D02*
X1190945D01*
X1190945Y915354D02*
X1190945Y915354D01*
X1190945Y915354D02*
Y964567D01*
X718504Y442913D02*
X856299D01*
X708661Y452756D02*
X718504Y442913D01*
X708661Y452756D02*
Y551181D01*
X738189Y580709D01*
Y472441D02*
X838093D01*
X1033465Y393701D02*
Y413386D01*
Y354331D02*
Y393701D01*
X856299Y324803D02*
Y354331D01*
Y324803D02*
X866142Y314961D01*
X935039D01*
X944882Y324803D01*
Y374016D01*
X964567Y393701D01*
X1033465D01*
Y265748D02*
Y354331D01*
X915354Y383858D02*
X944882Y413386D01*
X915354Y354331D02*
Y383858D01*
X944882Y413386D02*
X998937Y467441D01*
X1269685Y305118D02*
X1269685Y305118D01*
X1328740D01*
X1348425Y324803D01*
Y410433D01*
X1479331Y620079D02*
X1479331Y620079D01*
X1269685Y620079D02*
X1479331D01*
X1250000Y639764D02*
X1269685Y620079D01*
X649606Y944882D02*
X659449D01*
X688976Y915354D01*
X979409Y546338D02*
X994095Y561024D01*
X1427165Y521654D02*
X1427166Y521654D01*
X1479331D01*
X1673228Y757874D02*
Y767716D01*
X1643701Y728346D02*
X1673228Y757874D01*
Y767716D02*
Y767717D01*
X1643701Y797244D02*
X1673228Y767717D01*
X1643701Y728346D02*
X1692913Y679134D01*
Y531496D02*
Y679134D01*
X1673228Y511811D02*
X1692913Y531496D01*
X1040354Y580709D02*
X1092520D01*
Y472441D02*
Y580709D01*
X1033465Y413386D02*
X1092520Y472441D01*
Y580709D02*
X1250000D01*
X915354Y748032D02*
X919291Y744095D01*
Y673229D02*
Y744095D01*
X805144Y887802D02*
Y982258D01*
X856299Y354331D02*
Y442913D01*
X954724Y511811D02*
X954724Y511811D01*
X915354Y511811D02*
X954724D01*
X838093Y472441D02*
X839156Y473504D01*
X884764D01*
X915354Y442913D01*
X1479331Y718504D02*
X1479331Y718504D01*
X1643701Y600394D02*
X1643701D01*
X1604331Y639764D02*
X1643701Y600394D01*
X1555118Y639764D02*
X1604331D01*
X1535433Y620079D02*
X1555118Y639764D01*
X1479331Y620079D02*
X1535433D01*
X1479331Y600394D02*
X1584646D01*
X1479331Y659449D02*
X1564961D01*
X1584646Y679134D01*
Y728346D01*
Y305118D02*
Y379921D01*
X1551181Y413386D02*
X1584646Y379921D01*
X1368110Y324803D02*
Y410433D01*
Y324803D02*
X1387795Y305118D01*
X1584646D01*
X1250000Y324803D02*
X1269685Y305118D01*
X1250000Y324803D02*
Y410433D01*
X1210630Y305118D02*
X1230315Y324803D01*
Y410433D01*
X1002702Y541339D02*
X1040354D01*
X998937Y537574D02*
X1002702Y541339D01*
X998937Y467441D02*
Y537574D01*
X955787Y552244D02*
Y581771D01*
X944882Y541339D02*
X955787Y552244D01*
X933561Y541339D02*
X944882D01*
X932497Y542402D02*
X933561Y541339D01*
X857362Y542402D02*
X932497D01*
X856299Y541339D02*
X857362Y542402D01*
X994095Y561024D02*
X1040354D01*
X856299Y511811D02*
X856299Y511812D01*
Y541339D01*
X852362Y545276D02*
Y586614D01*
Y545276D02*
X856299Y541339D01*
X955787Y581771D02*
X974409Y600394D01*
X1040354D01*
X919291Y673229D02*
X972441Y620079D01*
X1040354D01*
X919291Y586614D02*
Y596457D01*
X885827Y629921D02*
X919291Y596457D01*
X885827Y629921D02*
Y634273D01*
X852362Y667738D02*
X885827Y634273D01*
X852362Y667738D02*
Y673229D01*
X856299Y677166D01*
Y748032D01*
X738189Y1062992D02*
X767742Y1033439D01*
Y982290D02*
Y1033439D01*
X797244Y1062992D02*
X805118Y1055118D01*
Y982284D02*
Y1055118D01*
Y982284D02*
X805144Y982258D01*
X730341Y824778D02*
Y887802D01*
X1250000Y849409D02*
Y964567D01*
X488189Y1039370D02*
X501969Y1053150D01*
X462598Y1039370D02*
X488189D01*
X905512Y1003937D02*
X935039Y974409D01*
X954724Y1003937D02*
X1122047D01*
X580709Y885827D02*
X649606D01*
X580709Y944882D02*
X649606D01*
D31*
X167323Y275591D02*
D03*
D32*
X549440Y527854D02*
D03*
X255905Y590551D02*
D03*
X662308Y579169D02*
D03*
X698817Y580707D02*
D03*
X388858Y1177933D02*
D03*
X364173Y1210630D02*
D03*
X344488Y932294D02*
D03*
X521654Y964567D02*
D03*
X265748D02*
D03*
X324803Y1220472D02*
D03*
X433071Y767716D02*
D03*
X1269685Y738189D02*
D03*
X1545276Y797244D02*
D03*
X738189Y777559D02*
D03*
X915354Y816929D02*
D03*
X1102362Y935039D02*
D03*
X1131890Y531496D02*
D03*
X1407480Y472441D02*
D03*
X1299213Y551181D02*
D03*
Y511811D02*
D03*
X1594488Y1112205D02*
D03*
X275591Y1200787D02*
D03*
X1250000Y580709D02*
D03*
X1466535Y442913D02*
D03*
X1525591Y216535D02*
D03*
X1190945Y639764D02*
D03*
Y915354D02*
D03*
X1072835Y1151575D02*
D03*
X738189Y580709D02*
D03*
Y472441D02*
D03*
X1082677Y216535D02*
D03*
X1151575Y108268D02*
D03*
X501969Y167323D02*
D03*
X944882Y413386D02*
D03*
X688976Y915354D02*
D03*
Y787402D02*
D03*
X521654D02*
D03*
X1673228Y767716D02*
D03*
Y511811D02*
D03*
X1033465Y265748D02*
D03*
X1545276Y1043307D02*
D03*
X954724Y511811D02*
D03*
X905512Y1003937D02*
D03*
X954724D02*
D03*
X403543Y1043307D02*
D03*
Y1003937D02*
D03*
Y1082677D02*
D03*
X450787Y1043307D02*
D03*
X356299D02*
D03*
D33*
X334646Y590551D02*
D03*
Y629921D02*
D03*
Y669291D02*
D03*
Y708662D02*
D03*
Y551181D02*
D03*
D34*
X425197Y834646D02*
D03*
Y425197D02*
D03*
D35*
X805118Y982284D02*
D03*
X767742Y982290D02*
D03*
X730341D02*
D03*
D36*
X805144Y887802D02*
D03*
X730341D02*
D03*
D37*
X1677165Y413386D02*
D03*
X1551181D02*
D03*
D38*
X234252Y437776D02*
D03*
X179134D02*
D03*
D39*
X852362Y673229D02*
D03*
Y586614D02*
D03*
X919291D02*
D03*
Y673229D02*
D03*
D40*
X1479331Y777559D02*
D03*
Y757874D02*
D03*
Y738189D02*
D03*
Y718504D02*
D03*
Y698819D02*
D03*
Y679134D02*
D03*
Y659449D02*
D03*
Y639764D02*
D03*
Y620079D02*
D03*
Y600394D02*
D03*
Y580709D02*
D03*
Y561024D02*
D03*
Y541339D02*
D03*
Y521654D02*
D03*
Y501969D02*
D03*
Y482284D02*
D03*
X1040354D02*
D03*
Y501969D02*
D03*
Y521654D02*
D03*
Y541339D02*
D03*
Y561024D02*
D03*
Y580709D02*
D03*
Y600394D02*
D03*
Y620079D02*
D03*
Y639764D02*
D03*
Y659449D02*
D03*
Y679134D02*
D03*
Y698819D02*
D03*
Y718504D02*
D03*
Y738189D02*
D03*
Y757874D02*
D03*
Y777559D02*
D03*
D41*
X1407480Y410433D02*
D03*
X1387795D02*
D03*
X1368110D02*
D03*
X1348425D02*
D03*
X1328740D02*
D03*
X1309055D02*
D03*
X1289370D02*
D03*
X1269685D02*
D03*
X1250000D02*
D03*
X1230315D02*
D03*
X1210630D02*
D03*
X1190945D02*
D03*
X1171260D02*
D03*
X1151575D02*
D03*
X1131890D02*
D03*
X1112205D02*
D03*
Y849409D02*
D03*
X1131890D02*
D03*
X1151575D02*
D03*
X1171260D02*
D03*
X1190945D02*
D03*
X1210630D02*
D03*
X1230315D02*
D03*
X1250000D02*
D03*
X1269685D02*
D03*
X1289370D02*
D03*
X1309055D02*
D03*
X1328740D02*
D03*
X1348425D02*
D03*
X1368110D02*
D03*
X1387795D02*
D03*
X1407480D02*
D03*
D42*
X344488Y1118110D02*
D03*
X364173D02*
D03*
X383858D02*
D03*
X403543D02*
D03*
X423228D02*
D03*
X442913D02*
D03*
X462598D02*
D03*
Y968504D02*
D03*
X442913D02*
D03*
X423228D02*
D03*
X403543D02*
D03*
X383858D02*
D03*
X364173D02*
D03*
X344488D02*
D03*
D43*
X403543Y1043307D02*
D03*
%TF.MD5,782af570874303305ea83d5349898dbc*%
M02*
