%TF.GenerationSoftware,Altium Limited,Altium Designer,18.1.9 (240)*%
G04 Layer_Color=8421504*
%FSLAX26Y26*%
%MOIN*%
%TF.FileFunction,Paste,Top*%
%TF.Part,Single*%
G01*
G75*
%TA.AperFunction,SMDPad,CuDef*%
%ADD10R,0.078740X0.043307*%
%ADD11R,0.023622X0.035433*%
%ADD12O,0.031496X0.059055*%
%ADD13O,0.059055X0.031496*%
G04:AMPARAMS|DCode=14|XSize=31.496mil|YSize=59.055mil|CornerRadius=0mil|HoleSize=0mil|Usage=FLASHONLY|Rotation=135.000|XOffset=0mil|YOffset=0mil|HoleType=Round|Shape=Rectangle|*
%AMROTATEDRECTD14*
4,1,4,0.032015,0.009744,-0.009744,-0.032015,-0.032015,-0.009744,0.009744,0.032015,0.032015,0.009744,0.0*
%
%ADD14ROTATEDRECTD14*%

G04:AMPARAMS|DCode=15|XSize=31.496mil|YSize=59.055mil|CornerRadius=0mil|HoleSize=0mil|Usage=FLASHONLY|Rotation=45.000|XOffset=0mil|YOffset=0mil|HoleType=Round|Shape=Rectangle|*
%AMROTATEDRECTD15*
4,1,4,0.009744,-0.032015,-0.032015,0.009744,-0.009744,0.032015,0.032015,-0.009744,0.009744,-0.032015,0.0*
%
%ADD15ROTATEDRECTD15*%

%ADD16R,0.062992X0.031496*%
%ADD17R,0.118110X0.078740*%
%ADD18R,0.023622X0.023622*%
%ADD19R,0.137795X0.039370*%
%ADD20R,0.137795X0.059055*%
%ADD21R,0.078740X0.078740*%
%ADD22O,0.070866X0.017716*%
%ADD23R,0.035433X0.023622*%
%ADD24R,0.050000X0.023622*%
%ADD25R,0.050000X0.023622*%
D10*
X623458Y529386D02*
D03*
X288812D02*
D03*
D11*
X895669Y551181D02*
D03*
X954725D02*
D03*
X1387795Y1062992D02*
D03*
X1446851D02*
D03*
X1250000Y1062991D02*
D03*
X1190945D02*
D03*
Y1141731D02*
D03*
X1250000D02*
D03*
X1387795Y1141732D02*
D03*
X1446851D02*
D03*
X1131889Y167323D02*
D03*
X1190945D02*
D03*
X1141732Y383860D02*
D03*
X1082677D02*
D03*
X1023622Y108268D02*
D03*
X1082677D02*
D03*
Y167323D02*
D03*
X1023622D02*
D03*
X1033464Y383859D02*
D03*
X974409D02*
D03*
X708661Y167323D02*
D03*
X767717D02*
D03*
X708661Y393701D02*
D03*
X767717D02*
D03*
X541338Y314961D02*
D03*
X600394D02*
D03*
Y236220D02*
D03*
X541338D02*
D03*
D12*
X426919Y633858D02*
D03*
X474163D02*
D03*
X521407D02*
D03*
X568652D02*
D03*
X615896D02*
D03*
X663140D02*
D03*
X710384D02*
D03*
X757628D02*
D03*
X804872D02*
D03*
X852116D02*
D03*
X899360D02*
D03*
X946604D02*
D03*
Y1137795D02*
D03*
X899360D02*
D03*
X852116D02*
D03*
X804872D02*
D03*
X757628D02*
D03*
X710384D02*
D03*
X663140D02*
D03*
X615896D02*
D03*
X568652D02*
D03*
X521407D02*
D03*
X474163D02*
D03*
X426919D02*
D03*
D13*
X1048966Y1007874D02*
D03*
Y763780D02*
D03*
Y1047244D02*
D03*
Y956693D02*
D03*
Y909449D02*
D03*
Y862205D02*
D03*
Y814961D02*
D03*
Y724410D02*
D03*
D14*
X1031742Y650591D02*
D03*
X289616Y1121063D02*
D03*
D15*
Y650591D02*
D03*
X1031742Y1121063D02*
D03*
D16*
X1527559Y403543D02*
D03*
Y452756D02*
D03*
Y600394D02*
D03*
Y551181D02*
D03*
Y501969D02*
D03*
D17*
X1641732Y301181D02*
D03*
Y702756D02*
D03*
D18*
X1692913Y901575D02*
D03*
X1574803D02*
D03*
Y830709D02*
D03*
X1692913D02*
D03*
D19*
X393701Y236220D02*
D03*
Y314961D02*
D03*
D20*
X161417Y149606D02*
D03*
Y401575D02*
D03*
D21*
X1328740Y137795D02*
D03*
X1505906D02*
D03*
D22*
X971456Y313977D02*
D03*
Y288386D02*
D03*
Y262796D02*
D03*
Y237205D02*
D03*
X1134842Y313977D02*
D03*
Y288386D02*
D03*
Y262796D02*
D03*
Y237205D02*
D03*
D23*
X866143Y305118D02*
D03*
Y246063D02*
D03*
D24*
X785427Y312967D02*
D03*
Y238163D02*
D03*
D25*
X690938Y312967D02*
D03*
Y275565D02*
D03*
X690945Y238189D02*
D03*
%TF.MD5,4e03aa2041787608144cbf0ad1fbeb57*%
M02*
