%TF.GenerationSoftware,Altium Limited,Altium Designer,18.1.9 (240)*%
G04 Layer_Color=128*
%FSLAX26Y26*%
%MOIN*%
%TF.FileFunction,Paste,Bot*%
%TF.Part,Single*%
G01*
G75*
%TA.AperFunction,SMDPad,CuDef*%
%ADD11R,0.023622X0.035433*%
%ADD23R,0.035433X0.023622*%
%ADD33R,0.094488X0.023622*%
%ADD34R,0.110236X0.086614*%
%ADD35R,0.023622X0.050000*%
%ADD36R,0.023622X0.050000*%
%ADD37R,0.047244X0.078740*%
%ADD38O,0.039370X0.059055*%
%ADD39R,0.047244X0.055118*%
%ADD40O,0.057087X0.009842*%
%ADD41O,0.009842X0.057087*%
%TA.AperFunction,NonConductor*%
%ADD63R,0.051181X0.043307*%
%ADD64R,0.009843X0.027559*%
%ADD65R,0.009843X0.027559*%
%ADD66R,0.009843X0.027559*%
%ADD67R,0.009842X0.027559*%
D11*
X738189Y816929D02*
D03*
X797244D02*
D03*
Y1062992D02*
D03*
X738189D02*
D03*
X1269685Y305118D02*
D03*
X1210630D02*
D03*
X423156Y1190945D02*
D03*
X482212D02*
D03*
X1643701Y797244D02*
D03*
X1584646D02*
D03*
Y728346D02*
D03*
X1643701D02*
D03*
X915354Y354331D02*
D03*
X856299D02*
D03*
X915354Y442913D02*
D03*
X856299D02*
D03*
X974409Y354331D02*
D03*
X1033465D02*
D03*
X1643701Y600394D02*
D03*
X1584646D02*
D03*
X1643701Y305118D02*
D03*
X1584646D02*
D03*
X915354Y748032D02*
D03*
X856299D02*
D03*
X915354Y511811D02*
D03*
X856299D02*
D03*
X1190945Y964567D02*
D03*
X1250000D02*
D03*
D23*
X580709Y885827D02*
D03*
Y944882D02*
D03*
X649606D02*
D03*
Y885827D02*
D03*
D33*
X334646Y590551D02*
D03*
Y629921D02*
D03*
Y669291D02*
D03*
Y708662D02*
D03*
Y551181D02*
D03*
D34*
X425197Y834646D02*
D03*
Y425197D02*
D03*
D35*
X805118Y982284D02*
D03*
X767742Y982290D02*
D03*
X730341D02*
D03*
D36*
X805144Y887802D02*
D03*
X730341D02*
D03*
D37*
X1677165Y413386D02*
D03*
X1551181D02*
D03*
D38*
X234252Y437776D02*
D03*
X179134D02*
D03*
D39*
X852362Y673229D02*
D03*
Y586614D02*
D03*
X919291D02*
D03*
Y673229D02*
D03*
D40*
X1479331Y777559D02*
D03*
Y757874D02*
D03*
Y738189D02*
D03*
Y718504D02*
D03*
Y698819D02*
D03*
Y679134D02*
D03*
Y659449D02*
D03*
Y639764D02*
D03*
Y620079D02*
D03*
Y600394D02*
D03*
Y580709D02*
D03*
Y561024D02*
D03*
Y541339D02*
D03*
Y521654D02*
D03*
Y501969D02*
D03*
Y482284D02*
D03*
X1040354D02*
D03*
Y501969D02*
D03*
Y521654D02*
D03*
Y541339D02*
D03*
Y561024D02*
D03*
Y580709D02*
D03*
Y600394D02*
D03*
Y620079D02*
D03*
Y639764D02*
D03*
Y659449D02*
D03*
Y679134D02*
D03*
Y698819D02*
D03*
Y718504D02*
D03*
Y738189D02*
D03*
Y757874D02*
D03*
Y777559D02*
D03*
D41*
X1407480Y410433D02*
D03*
X1387795D02*
D03*
X1368110D02*
D03*
X1348425D02*
D03*
X1328740D02*
D03*
X1309055D02*
D03*
X1289370D02*
D03*
X1269685D02*
D03*
X1250000D02*
D03*
X1230315D02*
D03*
X1210630D02*
D03*
X1190945D02*
D03*
X1171260D02*
D03*
X1151575D02*
D03*
X1131890D02*
D03*
X1112205D02*
D03*
Y849409D02*
D03*
X1131890D02*
D03*
X1151575D02*
D03*
X1171260D02*
D03*
X1190945D02*
D03*
X1210630D02*
D03*
X1230315D02*
D03*
X1250000D02*
D03*
X1269685D02*
D03*
X1289370D02*
D03*
X1309055D02*
D03*
X1328740D02*
D03*
X1348425D02*
D03*
X1368110D02*
D03*
X1387795D02*
D03*
X1407480D02*
D03*
D63*
X374016Y1017716D02*
D03*
X433071D02*
D03*
Y1068898D02*
D03*
X374016D02*
D03*
D64*
X462599Y1124011D02*
D03*
X442914D02*
D03*
X364174D02*
D03*
X344489D02*
D03*
X344482Y962598D02*
D03*
X364167D02*
D03*
X442908D02*
D03*
X462593D02*
D03*
X383864Y1124016D02*
D03*
D65*
X423228Y1124016D02*
D03*
D66*
X403543Y1124015D02*
D03*
D67*
X383857Y962598D02*
D03*
X403542D02*
D03*
X423227D02*
D03*
%TF.MD5,6126bffd895c7857d9e567617cbeb78a*%
M02*
