%TF.GenerationSoftware,Altium Limited,Altium Designer,18.1.9 (240)*%
G04 Layer_Color=128*
%FSLAX26Y26*%
%MOIN*%
%TF.FileFunction,Drillmap*%
%TF.Part,Single*%
G01*
G75*
%TA.AperFunction,NonConductor*%
%ADD88C,0.005000*%
D88*
X151575Y275591D02*
X183071D01*
X167323Y259843D02*
Y291339D01*
X543535Y527854D02*
X555346D01*
X549440Y521948D02*
Y533759D01*
X250000Y590551D02*
X261811D01*
X255905Y584646D02*
Y596457D01*
X656403Y579169D02*
X668214D01*
X662308Y573264D02*
Y585075D01*
X692912Y580707D02*
X704723D01*
X698817Y574802D02*
Y586613D01*
X382953Y1177933D02*
X394764D01*
X388858Y1172028D02*
Y1183839D01*
X358268Y1210630D02*
X370079D01*
X364173Y1204724D02*
Y1216535D01*
X338583Y932294D02*
X350394D01*
X344488Y926389D02*
Y938199D01*
X515748Y964567D02*
X527559D01*
X521654Y958661D02*
Y970472D01*
X259842Y964567D02*
X271654D01*
X265748Y958661D02*
Y970472D01*
X318898Y1220472D02*
X330709D01*
X324803Y1214567D02*
Y1226378D01*
X427165Y767716D02*
X438976D01*
X433071Y761811D02*
Y773622D01*
X1263780Y738189D02*
X1275591D01*
X1269685Y732284D02*
Y744095D01*
X1539370Y797244D02*
X1551181D01*
X1545276Y791339D02*
Y803150D01*
X732284Y777559D02*
X744095D01*
X738189Y771654D02*
Y783465D01*
X909449Y816929D02*
X921260D01*
X915354Y811024D02*
Y822835D01*
X1096457Y935039D02*
X1108268D01*
X1102362Y929134D02*
Y940945D01*
X1125984Y531496D02*
X1137795D01*
X1131890Y525591D02*
Y537402D01*
X1401575Y472441D02*
X1413386D01*
X1407480Y466535D02*
Y478346D01*
X1293307Y551181D02*
X1305118D01*
X1299213Y545276D02*
Y557087D01*
X1293307Y511811D02*
X1305118D01*
X1299213Y505906D02*
Y517716D01*
X1588583Y1112205D02*
X1600394D01*
X1594488Y1106299D02*
Y1118110D01*
X269685Y1200787D02*
X281496D01*
X275591Y1194882D02*
Y1206693D01*
X1244094Y580709D02*
X1255906D01*
X1250000Y574803D02*
Y586614D01*
X1460630Y442913D02*
X1472441D01*
X1466535Y437008D02*
Y448819D01*
X1519685Y216535D02*
X1531496D01*
X1525591Y210630D02*
Y222441D01*
X1185039Y639764D02*
X1196850D01*
X1190945Y633858D02*
Y645669D01*
X1185039Y915354D02*
X1196850D01*
X1190945Y909449D02*
Y921260D01*
X1066929Y1151575D02*
X1078740D01*
X1072835Y1145669D02*
Y1157480D01*
X732284Y580709D02*
X744095D01*
X738189Y574803D02*
Y586614D01*
X732284Y472441D02*
X744095D01*
X738189Y466535D02*
Y478346D01*
X1076772Y216535D02*
X1088583D01*
X1082677Y210630D02*
Y222441D01*
X1145669Y108268D02*
X1157480D01*
X1151575Y102362D02*
Y114173D01*
X496063Y167323D02*
X507874D01*
X501969Y161417D02*
Y173228D01*
X938976Y413386D02*
X950787D01*
X944882Y407480D02*
Y419291D01*
X683071Y915354D02*
X694882D01*
X688976Y909449D02*
Y921260D01*
X683071Y787402D02*
X694882D01*
X688976Y781496D02*
Y793307D01*
X515748Y787402D02*
X527559D01*
X521654Y781496D02*
Y793307D01*
X1667323Y767716D02*
X1679134D01*
X1673228Y761811D02*
Y773622D01*
X1667323Y511811D02*
X1679134D01*
X1673228Y505906D02*
Y517716D01*
X1027559Y265748D02*
X1039370D01*
X1033465Y259842D02*
Y271654D01*
X1539370Y1043307D02*
X1551181D01*
X1545276Y1037402D02*
Y1049213D01*
X948819Y511811D02*
X960630D01*
X954724Y505906D02*
Y517716D01*
X899606Y1003937D02*
X911417D01*
X905512Y998032D02*
Y1009842D01*
X948819Y1003937D02*
X960630D01*
X954724Y998032D02*
Y1009842D01*
X397638Y1043307D02*
X409449D01*
X403543Y1037402D02*
Y1049213D01*
X397638Y1003937D02*
X409449D01*
X403543Y998032D02*
Y1009842D01*
X397638Y1082677D02*
X409449D01*
X403543Y1076772D02*
Y1088583D01*
X444882Y1043307D02*
X456693D01*
X450787Y1037402D02*
Y1049213D01*
X350394Y1043307D02*
X362205D01*
X356299Y1037402D02*
Y1049213D01*
%TF.MD5,5f6dd8dc5da84607a973f01517a14a98*%
M02*
